<?xml version="1.0" standalone="no"?>
<!DOCTYPE svg PUBLIC "-//W3C//DTD SVG 20010904//EN"
 "http://www.w3.org/TR/2001/REC-SVG-20010904/DTD/svg10.dtd">
<svg version="1.0" xmlns="http://www.w3.org/2000/svg"
 width="360.000000pt" height="360.000000pt" viewBox="0 0 360.000000 360.000000"
 preserveAspectRatio="xMidYMid meet">
<metadata>
Created by potrace 1.11, written by Peter Selinger 2001-2013
</metadata>
<g transform="translate(0.000000,360.000000) scale(0.100000,-0.100000)"
fill="#000000" stroke="none">
<path d="M416 3391 c-2 -3 -3 -222 -2 -486 l1 -480 415 -2 c228 -1 431 -2 450
-2 l35 -1 0 -1097 0 -1098 485 0 485 0 3 1098 2 1097 28 1 c15 0 216 1 447 1
231 0 422 4 425 8 3 5 5 223 4 487 l0 478 -1387 1 c-763 1 -1389 -2 -1391 -5z
m2475 -311 c1 -21 1 -299 0 -331 l-1 -26 -437 -1 c-241 0 -444 -1 -450 -1 -10
-1 -13 -231 -15 -1098 l-3 -1098 -185 0 -185 0 0 1098 c0 726 -3 1097 -10
1098 -5 0 -208 1 -450 2 l-440 2 -1 180 c0 99 0 182 2 185 1 3 491 5 1088 5
958 0 1086 -2 1087 -15z"/>
</g>
</svg>
